<?xml version="1.0" encoding="utf-8"?>
<!-- Generator: Adobe Illustrator 28.1.0, SVG Export Plug-In . SVG Version: 6.00 Build 0)  -->
<svg version="1.1" id="Layer_1" xmlns="http://www.w3.org/2000/svg" xmlns:xlink="http://www.w3.org/1999/xlink" x="0px" y="0px"
	 viewBox="0 0 41.6 14.4" style="enable-background:new 0 0 41.6 14.4;" xml:space="preserve">
<style type="text/css">
	.st0{fill:#00AAFF;}
	.st1{fill:#FFFFFF;}
</style>
<g>
	<path class="st0" d="M10.4,5.8H0.7L0,7.7h9.7L10.4,5.8z M11.4,2.9H1.7L1,4.8h9.7L11.4,2.9z M12.5,0H2.8L2.1,1.9h9.7L12.5,0z"/>
	<path class="st1" d="M17.1,14.4L13.5,2.9H16l1.4,5c0.4,1.5,0.6,2.3,0.9,3.5c0.2-1.2,0.4-1.8,0.9-3.4l1.4-5.1H23l-3.7,11.5H17.1z
		 M26.8,14.4V4.8h-3.3V2.9h9.3l-0.7,1.9h-3v9.6H26.8z M35.8,7.5h1.3c0.4,0,0.6,0,0.8-0.1c0.5-0.2,0.9-0.6,0.9-1.3
		c0-0.8-0.4-1.1-0.9-1.3c-0.2-0.1-0.4-0.1-0.9-0.1h-1.2V7.5z M35.8,9.5v3h1.6c0.5,0,0.9,0,1.2-0.3c0.3-0.3,0.5-0.7,0.5-1.2
		c0-0.4-0.1-0.7-0.3-1c-0.3-0.4-0.8-0.5-1.5-0.5H35.8z M39.5,8.3L39.5,8.3c0.4,0.2,0.9,0.5,1.1,0.7c0.7,0.6,1,1.3,1,2.3
		c0,1.6-0.8,2.7-2.2,3.1c-0.4,0.1-0.9,0.2-1.7,0.2h-4.2V2.9h3.7c0.8,0,1.3,0,1.7,0.2c1.3,0.4,2.2,1.3,2.2,2.7c0,0.8-0.3,1.4-0.7,1.9
		C40.2,7.9,39.9,8.1,39.5,8.3"/>
</g>
</svg>
